<svg width="23" height="23" viewBox="0 0 23 23" fill="none" xmlns="http://www.w3.org/2000/svg">
<path d="M15.6824 5.20049C15.6824 4.55616 16.2048 4.03383 16.8491 4.03383C17.4934 4.03383 18.0158 4.55616 18.0158 5.20049C18.0158 5.84482 17.4934 6.36716 16.8491 6.36716C16.2048 6.36716 15.6824 5.84482 15.6824 5.20049Z" fill="#FAFAFA"/>
<path fill-rule="evenodd" clip-rule="evenodd" d="M11.0158 5.49216C7.95518 5.49216 5.47409 7.97325 5.47409 11.0338C5.47409 14.0944 7.95518 16.5755 11.0158 16.5755C14.0763 16.5755 16.5574 14.0944 16.5574 11.0338C16.5574 7.97325 14.0763 5.49216 11.0158 5.49216ZM7.22409 11.0338C7.22409 8.93975 8.92168 7.24216 11.0158 7.24216C13.1098 7.24216 14.8074 8.93975 14.8074 11.0338C14.8074 13.1279 13.1098 14.8255 11.0158 14.8255C8.92168 14.8255 7.22409 13.1279 7.22409 11.0338Z" fill="#FAFAFA"/>
<path fill-rule="evenodd" clip-rule="evenodd" d="M17.1504 0.339011C13.1061 -0.113004 8.92549 -0.113004 4.88115 0.339011C2.53376 0.601367 0.638699 2.45055 0.362721 4.81016C-0.120907 8.94518 -0.120907 13.1225 0.362721 17.2575C0.638699 19.6171 2.53376 21.4663 4.88116 21.7286C8.92549 22.1807 13.106 22.1807 17.1504 21.7286C19.4978 21.4663 21.3928 19.6171 21.6688 17.2575C22.1524 13.1225 22.1524 8.94518 21.6688 4.81016C21.3928 2.45055 19.4978 0.601367 17.1504 0.339011ZM5.07553 2.07818C8.99069 1.64061 13.0409 1.64061 16.956 2.07818C18.5078 2.25162 19.7509 3.47617 19.9307 5.01346C20.3985 9.0134 20.3985 13.0542 19.9307 17.0542C19.7509 18.5915 18.5078 19.816 16.956 19.9895C13.0409 20.427 8.99069 20.427 5.07553 19.9895C3.52374 19.816 2.28067 18.5915 2.10087 17.0542C1.63304 13.0542 1.63304 9.0134 2.10087 5.01346C2.28067 3.47617 3.52374 2.25162 5.07553 2.07818Z" fill="#FAFAFA"/>
</svg>
