<svg width="26" height="21" viewBox="0 0 26 21" fill="none" xmlns="http://www.w3.org/2000/svg">
<path fill-rule="evenodd" clip-rule="evenodd" d="M16.0668 0.0944416C16.6599 -0.00715445 17.3241 -0.0410764 17.9492 0.064673C19.0655 0.253536 20.0966 0.772386 20.9117 1.55027C21.4446 1.56232 21.9682 1.45735 22.4315 1.30771C22.8236 1.18107 23.1549 1.02815 23.387 0.907245C23.5024 0.847126 23.5915 0.795841 23.6495 0.761121C23.6784 0.743789 23.6995 0.73067 23.712 0.722747L23.7231 0.715676C24.0693 0.484993 24.5304 0.529891 24.8254 0.823314C25.1205 1.11681 25.1681 1.57755 24.9391 1.9251C24.6968 2.29294 24.3604 2.94869 23.9835 3.68341C23.9242 3.79893 23.8639 3.91641 23.8029 4.03502C23.5867 4.45498 23.3651 4.87943 23.1585 5.24359C23.0287 5.47223 22.89 5.70437 22.7501 5.90497V6.22438C22.759 7.39761 22.6244 8.56472 22.3513 9.70015C22.1795 10.4145 21.9528 11.1164 21.6726 11.7993C20.9464 13.5688 19.8749 15.1758 18.5208 16.5265C17.1666 17.8772 15.5568 18.9446 13.7855 19.6662C12.0158 20.3872 10.1203 20.7486 8.20943 20.7294C5.4394 20.7318 2.72764 19.9338 0.400464 18.4312C0.0576966 18.2099 -0.0866189 17.781 0.0526069 17.3975C0.191833 17.014 0.577642 16.7776 0.982559 16.8277C1.33298 16.8711 1.68579 16.8922 2.03889 16.8911C3.30758 16.8875 4.55211 16.6072 5.68828 16.0791C5.32714 15.9147 4.98235 15.712 4.66017 15.4731C3.71316 14.7709 3.0086 13.791 2.64452 12.6696C2.54991 12.3782 2.61459 12.0586 2.81504 11.8269C2.81863 11.8228 2.82226 11.8187 2.82592 11.8146C2.6118 11.6237 2.41145 11.4158 2.227 11.1922C1.39713 10.1863 0.940177 8.92464 0.933433 7.62061L0.93341 7.61609L0.933421 7.55775C0.933421 7.24758 1.09763 6.96058 1.36504 6.80341C1.43282 6.76357 1.50467 6.73358 1.57858 6.71346C1.18386 5.92587 0.978588 5.05618 0.980088 4.17388C0.979621 3.17432 1.24072 2.19202 1.73744 1.3246C1.88084 1.07419 2.13847 0.910583 2.42609 0.887278C2.7137 0.863973 2.99432 0.983969 3.17616 1.20802C4.29914 2.5917 5.70064 3.72367 7.28962 4.53038C8.10645 4.94508 8.96343 5.26906 9.84519 5.49823C10.3396 5.62672 10.8417 5.7254 11.3489 5.79357C11.3266 4.94977 11.4932 4.10642 11.8429 3.32716C12.3559 2.18404 13.2337 1.2435 14.3388 0.653055C14.8068 0.403004 15.4281 0.203841 16.0668 0.0944416ZM2.90891 8.89985C3.06016 9.32555 3.28517 9.72493 3.57691 10.0785C4.15012 10.7733 4.94572 11.2488 5.82914 11.4246C6.22264 11.5028 6.51249 11.8387 6.53235 12.2394C6.55221 12.6402 6.297 13.003 5.91317 13.1198C5.59526 13.2166 5.26955 13.284 4.94014 13.3214C5.15782 13.602 5.41388 13.8534 5.70252 14.0674C6.35724 14.5529 7.147 14.8222 7.96193 14.8379C8.33167 14.845 8.65701 15.0838 8.77464 15.4344C8.89227 15.785 8.77679 16.1717 8.48617 16.4004C7.26214 17.3635 5.84674 18.0351 4.34693 18.378C5.58999 18.7761 6.89368 18.981 8.21235 18.9794L8.22251 18.9794C9.90258 18.9969 11.5693 18.6794 13.1253 18.0455C14.6813 17.4116 16.0953 16.474 17.2849 15.2875C18.4745 14.101 19.4157 12.6893 20.0536 11.1349C20.2998 10.535 20.4989 9.91847 20.6498 9.29091C20.89 8.29252 21.0082 7.26624 21.0001 6.23459L21.0001 6.22775V5.60942C21.0001 5.39726 21.0772 5.19232 21.217 5.03275C21.2978 4.94054 21.4392 4.72756 21.6364 4.38001C21.8238 4.04969 22.0312 3.65314 22.2469 3.23409C22.26 3.20874 22.2731 3.18327 22.2862 3.15768C21.7267 3.27918 21.0925 3.34287 20.4277 3.27102C20.2172 3.24827 20.0221 3.14993 19.8785 2.99425C19.2918 2.35803 18.5106 1.93452 17.6572 1.79015C17.2786 1.7261 16.8209 1.74076 16.3622 1.81932C15.8639 1.90467 15.4303 2.05402 15.1635 2.19656C14.4002 2.60439 13.7938 3.25404 13.4395 4.04363C13.0852 4.83321 13.003 5.71806 13.2057 6.55941C13.2704 6.82764 13.2047 7.11065 13.0286 7.32302C12.8524 7.53539 12.5864 7.65224 12.3109 7.6383C11.3269 7.58853 10.3533 7.43844 9.40499 7.19196C8.40177 6.93122 7.42675 6.56262 6.49741 6.0908C5.12917 5.39615 3.88311 4.48954 2.80413 3.40724C2.75491 3.65879 2.72992 3.91548 2.73009 4.17384L2.73009 4.17608C2.72887 4.81858 2.88654 5.45142 3.18907 6.01825C3.4916 6.58507 3.92959 7.06829 4.46406 7.42489C4.78841 7.6413 4.93043 8.04623 4.8123 8.41784C4.69417 8.78944 4.34441 9.03803 3.95462 9.02743C3.6016 9.01782 3.25152 8.97489 2.90891 8.89985Z" fill="#FAFAFA"/>
</svg>
