<svg width="14" height="23" viewBox="0 0 14 23" fill="none" xmlns="http://www.w3.org/2000/svg">
<path fill-rule="evenodd" clip-rule="evenodd" d="M4.94397 1.79397C6.09263 0.645311 7.65055 0 9.275 0H12.425C12.9082 0 13.3 0.391751 13.3 0.875V5.075C13.3 5.55825 12.9082 5.95 12.425 5.95H9.275C9.22859 5.95 9.18408 5.96844 9.15126 6.00126C9.11844 6.03408 9.1 6.07859 9.1 6.125V8.4H12.425C12.6944 8.4 12.9489 8.52414 13.1147 8.73651C13.2805 8.94889 13.3392 9.22582 13.2739 9.48722L12.2239 13.6872C12.1265 14.0767 11.7765 14.35 11.375 14.35H9.1V21.875C9.1 22.3582 8.70825 22.75 8.225 22.75H4.025C3.54175 22.75 3.15 22.3582 3.15 21.875V14.35H0.875C0.391751 14.35 0 13.9582 0 13.475V9.275C0 8.79175 0.391751 8.4 0.875 8.4H3.15V6.125C3.15 4.50055 3.79531 2.94263 4.94397 1.79397ZM9.275 1.75C8.11468 1.75 7.00188 2.21094 6.18141 3.03141C5.36094 3.85188 4.9 4.96468 4.9 6.125V9.275C4.9 9.75825 4.50825 10.15 4.025 10.15H1.75V12.6H4.025C4.50825 12.6 4.9 12.9917 4.9 13.475V21H7.35V13.475C7.35 12.9917 7.74175 12.6 8.225 12.6H10.6918L11.3043 10.15H8.225C7.74175 10.15 7.35 9.75825 7.35 9.275V6.125C7.35 5.61446 7.55281 5.12483 7.91382 4.76382C8.27483 4.40281 8.76446 4.2 9.275 4.2H11.55V1.75H9.275Z" fill="#FAFAFA"/>
</svg>
